<svg width="8224" height="2447" viewBox="0 0 8224 2447" fill="none" xmlns="http://www.w3.org/2000/svg">
<g clip-path="url(#clip0_344_74034)">
<rect width="8224" height="2447" fill="#CFD0D3"/>
<g clip-path="url(#clip1_344_74034)">
<path d="M-721.407 1603.31C-682.329 1604.51 -567.293 1607.59 -486.936 1610.48C-406.579 1613.37 -309.062 1625.01 -239.265 1620.67C-169.468 1616.32 -134.951 1582.98 -68.1535 1584.4C-1.35608 1585.82 85.2422 1631.32 161.519 1629.18C237.797 1627.05 316.047 1575.91 389.51 1571.59C462.972 1567.28 566.83 1598.03 602.294 1603.31V818.506L-721.407 818.506V1603.31Z" fill="url(#paint0_linear_344_74034)"/>
<path d="M-721.407 1537.91C-678.199 1543.79 -543.011 1578.06 -462.156 1573.16C-381.302 1568.25 -323.021 1521.72 -236.28 1508.48C-149.539 1495.24 -39.1274 1480.07 58.2892 1493.73C155.706 1507.38 257.552 1583.05 348.219 1590.41C438.887 1597.78 559.948 1546.66 602.294 1537.91V818.505L-721.407 818.505V1537.91Z" fill="url(#paint1_linear_344_74034)"/>
<path d="M-721.407 1472.51C-685.157 1477.42 -559.84 1503.52 -503.903 1501.97C-447.966 1500.43 -434.07 1458.24 -385.787 1463.24C-337.504 1468.24 -278.396 1538.83 -214.205 1531.95C-150.014 1525.08 -48.5313 1424.1 -0.640991 1421.99C47.2493 1419.88 25.5981 1501.59 73.1374 1519.31C120.677 1537.03 217.992 1527.7 284.595 1528.32C351.197 1528.95 419.802 1532.38 472.752 1523.07C525.702 1513.77 580.704 1480.94 602.294 1472.51V818.506L-721.407 818.506V1472.51Z" fill="url(#paint2_linear_344_74034)"/>
<path d="M-721.407 1407.11C-687.938 1416.62 -587.46 1458.54 -520.593 1464.16C-453.726 1469.78 -401.265 1452.29 -320.206 1440.82C-239.148 1429.36 -113.082 1395.64 -34.244 1395.35C44.5939 1395.07 77.3824 1445.1 152.821 1439.11C228.259 1433.12 343.475 1364.73 418.387 1359.4C493.3 1354.06 571.643 1399.16 602.294 1407.11V818.506L-721.407 818.506V1407.11Z" fill="url(#paint3_linear_344_74034)"/>
<path d="M-721.407 1341.71C-663.801 1343.4 -477.805 1345.03 -375.769 1351.82C-273.732 1358.62 -210.453 1387.46 -109.187 1382.5C-7.9223 1377.53 113.242 1328.82 231.822 1322.02C350.402 1315.22 540.549 1338.43 602.294 1341.71V818.506L-721.407 818.506V1341.71Z" fill="url(#paint4_linear_344_74034)"/>
<path d="M-721.407 1276.31C-658.82 1279.69 -459.313 1292.33 -345.886 1296.57C-232.458 1300.81 -137.577 1301.58 -40.8433 1301.74C55.8905 1301.91 127.327 1301.8 234.517 1297.57C341.706 1293.33 540.998 1279.85 602.294 1276.31V818.506H-721.407V1276.31Z" fill="url(#paint5_linear_344_74034)"/>
<path d="M-721.407 1210.91C-671.343 1218.57 -534.517 1263.27 -421.022 1256.87C-307.526 1250.47 -149.847 1189.39 -40.4357 1172.52C68.9753 1155.64 128.323 1149.23 235.444 1155.63C342.566 1162.03 541.153 1201.7 602.294 1210.91V818.505H-721.407V1210.91Z" fill="url(#paint6_linear_344_74034)"/>
<path d="M-721.407 1145.51C-679.827 1146.2 -533.844 1156.01 -471.927 1149.66C-410.011 1143.31 -394.17 1111.9 -349.908 1107.39C-305.645 1102.89 -274.286 1118.91 -206.353 1122.64C-138.42 1126.37 -22.6138 1130.66 57.689 1129.79C137.992 1128.92 219.507 1107.48 275.463 1117.41C331.419 1127.35 338.954 1184.7 393.426 1189.38C447.898 1194.06 567.483 1152.82 602.294 1145.51V818.507H-721.407V1145.51Z" fill="url(#paint7_linear_344_74034)"/>
<path d="M-721.407 1080.11C-667.614 1075.76 -478.876 1056.62 -398.65 1054.04C-318.424 1051.46 -309.89 1066.63 -240.051 1064.65C-170.211 1062.68 -83.3822 1033.79 20.3892 1042.17C124.161 1050.55 285.593 1108.61 382.578 1114.93C479.562 1121.25 565.675 1085.91 602.294 1080.11V818.505H-721.407V1080.11Z" fill="url(#paint8_linear_344_74034)"/>
<path d="M-721.407 1014.71C-693.067 1005 -622.168 950.463 -551.366 956.455C-480.563 962.447 -378.123 1039.93 -296.594 1050.66C-215.065 1061.39 -140.71 1023.24 -62.1937 1020.83C16.3231 1018.43 103.879 1030.16 174.506 1036.25C245.133 1042.33 290.27 1060.93 361.568 1057.34C432.866 1053.75 562.173 1021.81 602.294 1014.71V818.505L-721.407 818.505V1014.71Z" fill="url(#paint9_linear_344_74034)"/>
<path d="M-721.407 949.308C-703.366 939.467 -673.283 885.649 -613.161 890.261C-553.039 894.873 -419.669 973.705 -360.676 976.98C-301.683 980.256 -317.319 914.512 -259.203 909.915C-201.088 905.317 -63.0261 940.738 -11.9815 949.395C39.0632 958.053 -7.74908 968.652 47.0646 961.859C101.878 955.066 252.725 900.559 316.9 908.638C381.075 916.718 384.548 1003.56 432.114 1010.34C479.68 1017.12 573.931 959.48 602.294 949.308V818.507L-721.407 818.507V949.308Z" fill="url(#paint10_linear_344_74034)"/>
<path d="M-721.407 883.906C-680.078 882.567 -529.342 871.136 -473.431 875.872C-417.519 880.609 -439.454 901.831 -385.94 912.326C-332.427 922.82 -213.794 946.745 -152.349 938.841C-90.9033 930.936 -81.6396 865.445 -17.2679 864.898C47.1037 864.35 161.87 927.771 233.881 935.556C305.893 943.341 353.4 920.215 414.802 911.607C476.204 902.999 571.046 888.523 602.294 883.906V818.506L-721.407 818.506V883.906Z" fill="url(#paint11_linear_344_74034)"/>
</g>
<g clip-path="url(#clip2_344_74034)">
<path d="M1662.72 1590.72C1696.3 1592.97 1794.24 1604.58 1864.22 1604.22C1934.2 1603.87 2026.82 1584.5 2082.6 1588.61C2138.39 1592.71 2150.1 1625.05 2198.92 1628.84C2247.74 1632.63 2312.89 1614.1 2375.51 1611.34C2438.14 1608.59 2507.3 1622.42 2574.68 1612.31C2642.07 1602.19 2711.18 1554.27 2779.81 1550.67C2848.43 1547.08 2951.98 1584.05 2986.42 1590.72V818.6L1662.72 818.6V1590.72Z" fill="url(#paint12_linear_344_74034)"/>
<path d="M1662.72 1526.38C1713.04 1532.69 1851.81 1570.56 1964.68 1564.23C2077.55 1557.9 2230.56 1489.39 2339.94 1488.41C2449.31 1487.43 2513.2 1552.03 2620.94 1558.35C2728.69 1564.68 2925.51 1531.71 2986.42 1526.38V818.599L1662.72 818.599V1526.38Z" fill="url(#paint13_linear_344_74034)"/>
<path d="M1662.72 1462.03C1716.13 1471.91 1905.13 1515.04 1983.19 1521.31C2061.25 1527.58 2050.12 1509.69 2131.07 1499.68C2212.01 1489.66 2363.07 1459.53 2468.85 1461.22C2574.63 1462.9 2679.5 1509.65 2765.76 1509.78C2852.02 1509.92 2949.64 1469.99 2986.42 1462.03V818.6L1662.72 818.6V1462.03Z" fill="url(#paint14_linear_344_74034)"/>
<path d="M1662.72 1397.69C1721.12 1395.03 1893.04 1381.04 2013.15 1381.72C2133.27 1382.4 2269.02 1396.98 2383.41 1401.77C2497.79 1406.56 2598.96 1411.14 2699.46 1410.46C2799.96 1409.78 2938.59 1399.82 2986.42 1397.69V818.6L1662.72 818.6V1397.69Z" fill="url(#paint15_linear_344_74034)"/>
<path d="M1662.72 1333.35C1693.34 1328.74 1780.62 1307.26 1846.46 1305.71C1912.3 1304.16 1972.39 1315.89 2057.75 1324.06C2143.11 1332.22 2283.72 1357.01 2358.62 1354.69C2433.52 1352.37 2440.29 1313.02 2507.15 1310.12C2574.02 1307.22 2679.93 1333.41 2759.81 1337.28C2839.69 1341.15 2948.65 1334 2986.42 1333.35V818.599L1662.72 818.599V1333.35Z" fill="url(#paint16_linear_344_74034)"/>
<path d="M1662.72 1269C1704.47 1264.78 1854.12 1249.32 1913.21 1243.65C1972.3 1237.98 1960.15 1222.96 2017.25 1234.99C2074.34 1247.02 2196.49 1320.11 2255.78 1315.82C2315.08 1311.53 2315.12 1207.37 2373.02 1209.24C2430.92 1211.1 2523.76 1310.14 2603.18 1327C2682.6 1343.87 2785.66 1320.1 2849.54 1310.43C2913.41 1300.76 2963.6 1275.91 2986.42 1269V818.6L1662.72 818.6V1269Z" fill="url(#paint17_linear_344_74034)"/>
<path d="M1662.72 1204.66C1702.13 1212.31 1804.38 1246.99 1899.22 1250.54C1994.05 1254.09 2133.07 1237.34 2231.73 1225.94C2330.38 1214.55 2410.14 1195.03 2491.15 1182.16C2572.17 1169.3 2635.28 1144.98 2717.83 1148.73C2800.37 1152.48 2941.65 1195.34 2986.42 1204.66V818.599H1662.72V1204.66Z" fill="url(#paint18_linear_344_74034)"/>
<path d="M1662.72 1140.32C1705.54 1150.31 1853.66 1202.79 1919.68 1200.26C1985.69 1197.74 2000.66 1136.42 2058.8 1125.17C2116.93 1113.92 2196.9 1129.19 2268.5 1132.76C2340.1 1136.33 2405.39 1144.33 2488.38 1146.59C2571.38 1148.86 2683.48 1147.39 2766.49 1146.35C2849.49 1145.3 2949.76 1141.32 2986.42 1140.32V818.6H1662.72V1140.32Z" fill="url(#paint19_linear_344_74034)"/>
<path d="M1662.72 1075.97C1714.54 1072.3 1892.68 1063.44 1973.69 1053.92C2054.7 1044.4 2063.16 1022.82 2148.79 1018.86C2234.41 1014.91 2388.35 1023.28 2487.46 1030.18C2586.57 1037.09 2660.29 1052.67 2743.45 1060.31C2826.61 1067.94 2945.92 1073.36 2986.42 1075.97V818.6H1662.72V1075.97Z" fill="url(#paint20_linear_344_74034)"/>
<path d="M1662.72 1011.63C1699.79 1003.99 1805.29 967.644 1885.18 965.763C1965.07 963.882 2068.37 1001.65 2142.03 1000.34C2215.68 999.035 2267.02 960.277 2327.11 957.906C2387.2 955.535 2426.58 976.394 2502.57 986.119C2578.56 995.844 2702.42 1012 2783.06 1016.25C2863.7 1020.5 2952.52 1012.4 2986.42 1011.63V818.601L1662.72 818.601V1011.63Z" fill="url(#paint21_linear_344_74034)"/>
<path d="M1662.72 947.286C1703.34 953.25 1836.28 981.121 1906.46 983.069C1976.64 985.018 2029.17 962.51 2083.81 958.975C2138.44 955.441 2171.86 962.172 2234.3 961.862C2296.73 961.552 2394.3 965.171 2458.41 957.116C2522.52 949.061 2555.59 910.68 2618.94 913.533C2682.29 916.387 2777.27 968.612 2838.52 974.237C2899.76 979.862 2961.77 951.778 2986.42 947.286V818.599L1662.72 818.599V947.286Z" fill="url(#paint22_linear_344_74034)"/>
<path d="M1662.72 882.943C1711.87 891.932 1860.08 938.701 1957.64 936.879C2055.21 935.057 2158.38 889.266 2248.08 872.012C2337.79 854.757 2417.93 824.208 2495.89 833.351C2573.85 842.495 2634.1 918.608 2715.85 926.874C2797.61 935.139 2941.32 890.265 2986.42 882.943V818.599L1662.72 818.599V882.943Z" fill="url(#paint23_linear_344_74034)"/>
</g>
<g clip-path="url(#clip3_344_74034)">
<path d="M470.768 1590.72C504.352 1592.97 602.291 1604.58 672.273 1604.22C742.254 1603.87 834.873 1584.5 890.656 1588.61C946.439 1592.71 958.151 1625.05 1006.97 1628.84C1055.79 1632.63 1120.94 1614.1 1183.57 1611.34C1246.19 1608.59 1315.35 1622.42 1382.74 1612.31C1450.12 1602.19 1519.23 1554.27 1587.86 1550.67C1656.48 1547.08 1760.03 1584.05 1794.47 1590.72V818.6L470.768 818.6L470.768 1590.72Z" fill="url(#paint24_linear_344_74034)"/>
<path d="M470.768 1526.38C521.096 1532.69 659.866 1570.56 772.737 1564.23C885.607 1557.9 1038.61 1489.39 1147.99 1488.41C1257.37 1487.43 1321.25 1552.03 1429 1558.35C1536.74 1564.68 1733.56 1531.71 1794.47 1526.38V818.599L470.768 818.599L470.768 1526.38Z" fill="url(#paint25_linear_344_74034)"/>
<path d="M470.768 1462.03C524.18 1471.91 713.182 1515.04 791.24 1521.31C869.299 1527.58 858.177 1509.69 939.121 1499.68C1020.06 1489.66 1171.12 1459.53 1276.9 1461.22C1382.68 1462.9 1487.55 1509.65 1573.81 1509.78C1660.07 1509.92 1757.69 1469.99 1794.47 1462.03V818.6L470.768 818.6L470.768 1462.03Z" fill="url(#paint26_linear_344_74034)"/>
<path d="M470.768 1397.69C529.174 1395.03 701.09 1381.04 821.205 1381.72C941.32 1382.4 1077.07 1396.98 1191.46 1401.77C1305.84 1406.56 1407.01 1411.14 1507.51 1410.46C1608.01 1409.78 1746.64 1399.82 1794.47 1397.69V818.6L470.768 818.6L470.768 1397.69Z" fill="url(#paint27_linear_344_74034)"/>
<path d="M470.768 1333.35C501.392 1328.74 588.674 1307.26 654.514 1305.71C720.353 1304.16 780.445 1315.89 865.805 1324.06C951.164 1332.22 1091.77 1357.01 1166.67 1354.69C1241.57 1352.37 1248.34 1313.02 1315.2 1310.12C1382.07 1307.22 1487.99 1333.41 1567.86 1337.28C1647.74 1341.15 1756.7 1334 1794.47 1333.35V818.599L470.768 818.599L470.768 1333.35Z" fill="url(#paint28_linear_344_74034)"/>
<path d="M470.768 1269C512.517 1264.78 662.175 1249.32 721.263 1243.65C780.352 1237.98 768.204 1222.96 825.299 1234.99C882.395 1247.02 1004.54 1320.11 1063.83 1315.82C1123.13 1311.53 1123.17 1207.37 1181.07 1209.24C1238.97 1211.1 1331.81 1310.14 1411.23 1327C1490.65 1343.87 1593.71 1320.1 1657.59 1310.43C1721.46 1300.76 1771.66 1275.91 1794.47 1269V818.6L470.768 818.6L470.768 1269Z" fill="url(#paint29_linear_344_74034)"/>
<path d="M470.768 1204.66C510.185 1212.31 612.436 1246.99 707.271 1250.54C802.107 1254.09 941.125 1237.34 1039.78 1225.94C1138.44 1214.55 1218.19 1195.03 1299.21 1182.16C1380.22 1169.3 1443.34 1144.98 1525.88 1148.73C1608.42 1152.48 1749.7 1195.34 1794.47 1204.66V818.599H470.768V1204.66Z" fill="url(#paint30_linear_344_74034)"/>
<path d="M470.768 1140.32C513.595 1150.31 661.714 1202.79 727.727 1200.26C793.741 1197.74 808.713 1136.42 866.85 1125.17C924.987 1113.92 1004.95 1129.19 1076.55 1132.76C1148.15 1136.33 1213.44 1144.33 1296.44 1146.59C1379.43 1148.86 1491.53 1147.39 1574.54 1146.35C1657.54 1145.3 1757.81 1141.32 1794.47 1140.32V818.599H470.768V1140.32Z" fill="url(#paint31_linear_344_74034)"/>
<path d="M470.768 1075.97C522.597 1072.3 700.73 1063.44 781.741 1053.92C862.753 1044.4 871.21 1022.82 956.838 1018.86C1042.47 1014.91 1196.4 1023.28 1295.51 1030.18C1394.62 1037.09 1468.34 1052.67 1551.5 1060.31C1634.66 1067.94 1753.98 1073.36 1794.47 1075.97V818.6H470.768V1075.97Z" fill="url(#paint32_linear_344_74034)"/>
<path d="M470.768 1011.63C507.845 1003.99 613.347 967.644 693.232 965.763C773.117 963.882 876.424 1001.65 950.078 1000.34C1023.73 999.035 1075.07 960.277 1135.16 957.906C1195.25 955.535 1234.63 976.394 1310.62 986.119C1386.62 995.843 1510.47 1012 1591.11 1016.25C1671.75 1020.5 1760.58 1012.4 1794.47 1011.63V818.601L470.768 818.601V1011.63Z" fill="url(#paint33_linear_344_74034)"/>
<path d="M470.768 947.286C511.393 953.25 644.334 981.121 714.515 983.069C784.697 985.018 837.218 962.51 891.857 958.975C946.496 955.441 979.915 962.172 1042.35 961.862C1104.78 961.552 1202.35 965.171 1266.46 957.116C1330.57 949.061 1363.64 910.68 1426.99 913.533C1490.34 916.387 1585.32 968.612 1646.57 974.237C1707.82 979.862 1769.82 951.778 1794.47 947.286V818.599L470.768 818.599V947.286Z" fill="url(#paint34_linear_344_74034)"/>
<path d="M470.768 882.943C519.923 891.932 668.136 938.701 765.697 936.879C863.258 935.057 966.429 889.266 1056.14 872.011C1145.84 854.757 1225.98 824.208 1303.94 833.351C1381.9 842.495 1442.15 918.608 1523.91 926.873C1605.66 935.139 1749.38 890.264 1794.47 882.943V818.599L470.768 818.599V882.943Z" fill="url(#paint35_linear_344_74034)"/>
<rect x="547.948" y="895" width="1169.11" height="657.626" fill="#060A15" style="mix-blend-mode:hue"/>
</g>
<g clip-path="url(#clip4_344_74034)">
<path d="M2831.69 1630.18C2867.24 1623.04 2945.26 1594.14 3044.94 1587.33C3144.62 1580.51 3320.71 1577.66 3429.77 1589.29C3538.82 1600.91 3613.76 1660.09 3699.27 1657.1C3784.78 1654.11 3859.22 1575.85 3942.82 1571.36C4026.43 1566.88 4157.87 1620.38 4200.88 1630.18V818.599L2831.69 818.599V1630.18Z" fill="url(#paint36_linear_344_74034)"/>
<path d="M2831.69 1562.55C2857.68 1557.55 2922.19 1538.19 2987.59 1532.56C3052.98 1526.93 3174.97 1525.13 3224.05 1528.76C3273.14 1532.39 3222.74 1543.28 3282.1 1554.35C3341.46 1565.42 3510.18 1583.84 3580.21 1595.17C3650.24 1606.5 3657.27 1637.65 3702.25 1622.3C3747.23 1606.96 3794.91 1522.32 3850.11 1503.09C3905.31 1483.87 3974.99 1497.03 4033.46 1506.94C4091.92 1516.85 4172.98 1553.28 4200.88 1562.55V818.599L2831.69 818.599V1562.55Z" fill="url(#paint37_linear_344_74034)"/>
<path d="M2831.69 1494.92C2863.84 1495.89 2953.83 1511.29 3024.59 1500.75C3095.36 1490.2 3182.16 1434.58 3256.31 1431.66C3330.45 1428.73 3415.47 1467.63 3469.45 1483.2C3523.44 1498.77 3524.96 1522.4 3580.23 1525.07C3635.49 1527.74 3731.85 1512.1 3801.05 1499.24C3870.24 1486.37 3928.77 1448.6 3995.41 1447.88C4062.05 1447.16 4166.63 1487.08 4200.88 1494.92V818.599L2831.69 818.599V1494.92Z" fill="url(#paint38_linear_344_74034)"/>
<path d="M2831.69 1427.29C2857.24 1425.21 2928.11 1419.98 2984.98 1414.84C3041.85 1409.69 3102.21 1400.01 3172.94 1396.43C3243.66 1392.85 3343.41 1392.94 3409.35 1393.36C3475.28 1393.78 3503.6 1393.85 3568.53 1398.95C3633.47 1404.05 3728.83 1413.21 3798.96 1423.95C3869.09 1434.69 3922.33 1462.81 3989.31 1463.37C4056.3 1463.93 4165.62 1433.3 4200.88 1427.29V818.6L2831.69 818.6V1427.29Z" fill="url(#paint39_linear_344_74034)"/>
<path d="M2831.69 1359.65C2888.3 1350.14 3061.84 1293.9 3171.33 1302.56C3280.82 1311.21 3368.5 1408.12 3488.63 1411.61C3608.77 1415.1 3773.44 1332.18 3892.15 1323.52C4010.86 1314.86 4149.42 1353.63 4200.88 1359.65V818.599L2831.69 818.599V1359.65Z" fill="url(#paint40_linear_344_74034)"/>
<path d="M2831.69 1292.02C2868.78 1284.45 2953.54 1256.75 3054.23 1246.58C3154.92 1236.41 3332.02 1215.87 3435.83 1231.01C3539.63 1246.16 3600.84 1321.8 3677.07 1337.43C3753.3 1353.06 3805.9 1332.37 3893.2 1324.8C3980.5 1317.24 4149.6 1297.49 4200.88 1292.02V818.599L2831.69 818.599V1292.02Z" fill="url(#paint41_linear_344_74034)"/>
<path d="M2831.69 1224.39C2868.1 1223.05 2984.52 1218.58 3050.11 1216.32C3115.69 1214.05 3158.22 1204.83 3225.21 1210.8C3292.2 1216.77 3395.79 1252.63 3452.05 1252.14C3508.31 1251.66 3495.08 1214.84 3562.76 1207.9C3630.44 1200.96 3785.16 1218.38 3858.12 1210.5C3931.09 1202.63 3943.42 1158.33 4000.55 1160.65C4057.67 1162.96 4167.49 1213.77 4200.88 1224.39V818.6H2831.69V1224.39Z" fill="url(#paint42_linear_344_74034)"/>
<path d="M2831.69 1156.76C2859.3 1164.88 2918.62 1205.59 2997.32 1205.46C3076.01 1205.32 3227.7 1153.34 3303.86 1155.95C3380.02 1158.56 3381.38 1212.37 3454.27 1221.1C3527.17 1229.83 3647.06 1216.45 3741.22 1208.32C3835.38 1200.18 3942.62 1180.89 4019.23 1172.3C4095.84 1163.71 4170.6 1159.35 4200.88 1156.76V818.6H2831.69V1156.76Z" fill="url(#paint43_linear_344_74034)"/>
<path d="M2831.69 1089.13C2898.74 1079.56 3122.06 1041.05 3233.98 1031.74C3345.9 1022.44 3391.07 1032.81 3503.23 1033.31C3615.38 1033.81 3790.64 1025.44 3906.92 1034.74C4023.19 1044.05 4151.89 1080.06 4200.88 1089.13V818.599H2831.69V1089.13Z" fill="url(#paint44_linear_344_74034)"/>
<path d="M2831.69 1021.49C2863.15 1029.88 2933.69 1075.98 3020.42 1071.84C3107.15 1067.7 3260.55 998.399 3352.07 996.659C3443.58 994.918 3494.2 1050.43 3569.5 1061.39C3644.8 1072.35 3740.98 1060.44 3803.89 1062.4C3866.8 1064.36 3880.82 1079.98 3946.98 1073.17C4013.15 1066.35 4158.56 1030.11 4200.88 1021.49V818.599H2831.69V1021.49Z" fill="url(#paint45_linear_344_74034)"/>
<path d="M2831.69 953.863C2865.28 952.915 2967.19 950.548 3033.2 948.175C3099.22 945.801 3155 937.393 3227.8 939.622C3300.61 941.851 3392.25 961.756 3470.03 961.547C3547.8 961.337 3620.69 935.984 3694.46 938.364C3768.24 940.743 3828.26 973.24 3912.67 975.823C3997.07 978.406 4152.84 957.523 4200.88 953.863V818.599L2831.69 818.599V953.863Z" fill="url(#paint46_linear_344_74034)"/>
<path d="M2831.69 886.231C2871.04 889.192 2972.09 905.29 3067.79 903.996C3163.49 902.701 3303.54 878.032 3405.88 878.463C3508.22 878.894 3588.32 909.254 3681.82 906.582C3775.32 903.91 3880.37 865.824 3966.88 862.432C4053.39 859.04 4161.88 882.264 4200.88 886.231V818.599L2831.69 818.599V886.231Z" fill="url(#paint47_linear_344_74034)"/>
</g>
<g clip-path="url(#clip5_344_74034)">
<path d="M4018.53 1619.58C4053.11 1623.66 4116.82 1653.99 4225.99 1644.02C4335.17 1634.05 4553.05 1569.53 4673.58 1559.75C4794.11 1549.97 4880.82 1585.89 4949.18 1585.33C5017.53 1584.78 5008.89 1550.73 5083.72 1556.44C5158.55 1562.15 5345.77 1609.06 5398.17 1619.58V801.609L4018.53 801.609V1619.58Z" fill="url(#paint48_linear_344_74034)"/>
<path d="M4018.53 1537.79C4038.99 1553.34 4066.1 1625.13 4141.29 1631.13C4216.47 1637.13 4407.96 1605.93 4469.64 1573.78C4531.32 1541.62 4451.56 1439.9 4511.37 1438.21C4571.18 1436.51 4745.56 1565.17 4828.5 1563.61C4911.44 1562.05 4935.81 1425.54 5009.01 1428.85C5082.21 1432.15 5202.82 1565.27 5267.69 1583.43C5332.55 1601.58 5376.43 1545.39 5398.17 1537.79V801.608L4018.53 801.608V1537.79Z" fill="url(#paint49_linear_344_74034)"/>
<path d="M4018.53 1455.99C4088.31 1457.24 4309.2 1451.58 4437.19 1463.52C4565.17 1475.45 4667.47 1519.72 4786.42 1527.59C4905.38 1535.47 5048.94 1522.69 5150.9 1510.76C5252.85 1498.82 5356.96 1465.12 5398.17 1455.99V801.608L4018.53 801.608V1455.99Z" fill="url(#paint50_linear_344_74034)"/>
<path d="M4018.53 1374.19C4081.71 1383.71 4293.95 1431.56 4397.63 1431.31C4501.32 1431.07 4547.32 1374.57 4640.64 1372.7C4733.97 1370.84 4831.33 1419.9 4957.58 1420.15C5083.84 1420.4 5324.74 1381.85 5398.17 1374.19V801.608L4018.53 801.608V1374.19Z" fill="url(#paint51_linear_344_74034)"/>
<path d="M4018.53 1292.39C4061.3 1285.37 4204.19 1239.81 4275.18 1250.23C4346.17 1260.65 4379.64 1334.2 4444.46 1354.91C4509.27 1375.62 4595.14 1382.55 4664.05 1374.48C4732.97 1366.41 4817.61 1307.51 4857.97 1306.49C4898.32 1305.46 4863.43 1365.16 4906.18 1368.35C4948.94 1371.54 5032.5 1338.29 5114.49 1325.63C5196.49 1312.97 5350.89 1297.93 5398.17 1292.39V801.608L4018.53 801.608V1292.39Z" fill="url(#paint52_linear_344_74034)"/>
<path d="M4018.53 1210.6C4056.16 1202.97 4185.18 1164.12 4244.34 1164.86C4303.5 1165.6 4295.74 1193.44 4373.49 1215.03C4451.24 1236.63 4651.8 1300.18 4710.84 1294.4C4769.88 1288.62 4673.3 1193.28 4727.74 1180.33C4782.18 1167.38 4967.32 1225.9 5037.48 1216.7C5107.64 1207.51 5088.58 1126.19 5148.69 1125.17C5208.81 1124.15 5356.59 1196.36 5398.17 1210.6V801.608L4018.53 801.608V1210.6Z" fill="url(#paint53_linear_344_74034)"/>
<path d="M4018.53 1128.8C4056.9 1145.61 4178.03 1235.4 4248.73 1229.67C4319.44 1223.93 4388.34 1116.32 4442.76 1094.38C4497.19 1072.44 4526.12 1091.16 4575.27 1098.03C4624.43 1104.91 4676.24 1145.55 4737.69 1135.63C4799.14 1125.72 4877.7 1038.56 4943.99 1038.53C5010.29 1038.49 5095.17 1123.54 5135.47 1135.42C5175.76 1147.31 5141.97 1110.93 5185.75 1109.83C5229.54 1108.72 5362.77 1125.64 5398.17 1128.8V801.608L4018.53 801.608V1128.8Z" fill="url(#paint54_linear_344_74034)"/>
<path d="M4018.53 1047C4064.18 1043.75 4244.65 1032.56 4292.45 1027.48C4340.25 1022.39 4241.27 1007.6 4305.34 1016.49C4369.4 1025.39 4610.42 1076.83 4676.86 1080.84C4743.3 1084.86 4645.85 1029.68 4703.98 1040.59C4762.1 1051.49 4931.64 1141.92 5025.61 1146.29C5119.57 1150.66 5205.68 1083.38 5267.77 1066.83C5329.87 1050.28 5376.44 1050.31 5398.17 1047V801.608L4018.53 801.608V1047Z" fill="url(#paint55_linear_344_74034)"/>
<path d="M4018.53 965.203C4063.18 981.042 4201.98 1051.4 4286.44 1060.24C4370.9 1069.08 4422.53 1041.81 4525.31 1018.23C4628.09 994.659 4789.19 915.862 4903.12 918.797C5017.04 921.732 5126.34 1028.11 5208.85 1035.84C5291.36 1043.58 5366.62 976.976 5398.17 965.203V801.608L4018.53 801.608V965.203Z" fill="url(#paint56_linear_344_74034)"/>
<path d="M4018.53 883.405C4057.8 873.476 4192.15 830.022 4254.15 823.829C4316.15 817.636 4306.21 835.906 4390.51 846.245C4474.81 856.584 4682.59 890.209 4759.94 885.862C4837.28 881.514 4782.88 802.778 4854.58 820.162C4926.27 837.546 5099.49 979.624 5190.08 990.165C5280.68 1000.71 5363.49 901.199 5398.17 883.405V801.608L4018.53 801.608V883.405Z" fill="url(#paint57_linear_344_74034)"/>
</g>
<g clip-path="url(#clip6_344_74034)">
<path d="M5183.99 1648.53C5252.25 1640.03 5474.11 1608.01 5593.54 1597.51C5712.97 1587.01 5787.56 1584.08 5900.57 1585.55C6013.59 1587.02 6152.25 1595.83 6271.62 1606.32C6390.98 1616.82 6559.24 1641.5 6616.77 1648.53V799.05L5183.99 799.05V1648.53Z" fill="url(#paint58_linear_344_74034)"/>
<path d="M5183.99 1577.74C5250.51 1581 5461.35 1605.63 5583.1 1597.3C5704.85 1588.97 5802.25 1523.49 5914.48 1527.74C6026.72 1531.98 6139.45 1614.44 6256.5 1622.77C6373.55 1631.11 6556.72 1585.25 6616.77 1577.74V799.049L5183.99 799.049V1577.74Z" fill="url(#paint59_linear_344_74034)"/>
<path d="M5183.99 1506.95C5237.01 1503.77 5372.45 1479.73 5502.14 1487.84C5631.82 1495.96 5847 1556.84 5962.09 1555.67C6077.18 1554.49 6083.58 1488.92 6192.69 1480.8C6301.8 1472.68 6546.09 1502.59 6616.77 1506.95V799.049L5183.99 799.049V1506.95Z" fill="url(#paint60_linear_344_74034)"/>
<path d="M5183.99 1436.16C5225.58 1434.82 5362.37 1430.98 5433.52 1428.15C5504.67 1425.31 5553.02 1407.73 5610.9 1419.15C5668.78 1430.56 5716.64 1489.47 5780.81 1496.62C5844.97 1503.76 5928.75 1468.32 5995.9 1462.02C6063.05 1455.73 6123.05 1470.63 6183.71 1458.85C6244.36 1447.07 6287.65 1395.12 6359.83 1391.34C6432.01 1387.55 6573.95 1428.69 6616.77 1436.16V799.049L5183.99 799.049V1436.16Z" fill="url(#paint61_linear_344_74034)"/>
<path d="M5183.99 1365.37C5215.37 1357.18 5307.81 1312.28 5372.31 1316.24C5436.81 1320.21 5503.78 1388.18 5570.99 1389.18C5638.19 1390.18 5721.28 1329.44 5775.53 1322.24C5829.77 1315.04 5856.37 1333.11 5896.46 1345.97C5936.55 1358.82 5962.41 1390.96 6016.07 1399.38C6069.72 1407.79 6148.39 1393.69 6218.37 1396.45C6288.36 1399.22 6369.58 1421.15 6435.98 1415.97C6502.38 1410.79 6586.64 1373.8 6616.77 1365.37V799.049L5183.99 799.049V1365.37Z" fill="url(#paint62_linear_344_74034)"/>
<path d="M5183.99 1294.58C5227.28 1296.21 5378.43 1296.45 5443.74 1304.37C5509.04 1312.28 5511.93 1335.99 5575.8 1342.07C5639.67 1348.14 5766.25 1338.68 5826.95 1340.8C5887.64 1342.92 5883.5 1373.43 5939.99 1354.77C5996.47 1336.1 6076.36 1231.42 6165.84 1228.81C6255.32 1226.2 6401.7 1328.15 6476.86 1339.11C6552.01 1350.07 6593.45 1302 6616.77 1294.58V799.05L5183.99 799.05V1294.58Z" fill="url(#paint63_linear_344_74034)"/>
<path d="M5183.99 1223.79C5237.96 1225.11 5417.45 1237.88 5507.82 1231.71C5598.18 1225.55 5647.38 1194.9 5726.2 1186.82C5805.01 1178.73 5872.76 1180.32 5980.7 1183.18C6088.64 1186.05 6267.82 1197.23 6373.84 1204C6479.85 1210.77 6576.28 1220.49 6616.77 1223.79V799.049L5183.99 799.049V1223.79Z" fill="url(#paint64_linear_344_74034)"/>
<path d="M5183.99 1153C5233.81 1154.68 5403.74 1152.16 5482.9 1163.06C5562.07 1173.96 5600.05 1216.07 5658.97 1218.41C5717.89 1220.75 5756.84 1193.3 5836.44 1177.08C5916.03 1160.86 6043.54 1118.7 6136.52 1121.07C6229.51 1123.44 6314.3 1185.99 6394.34 1191.31C6474.38 1196.63 6579.7 1159.38 6616.77 1153V799.049L5183.99 799.049V1153Z" fill="url(#paint65_linear_344_74034)"/>
<path d="M5183.99 1082.21C5204.58 1085.61 5243.36 1101.93 5307.53 1102.62C5371.71 1103.32 5490.9 1091.59 5569.02 1086.39C5647.14 1081.2 5714.73 1074.81 5776.25 1071.45C5837.78 1068.08 5898.37 1053.35 5938.17 1066.2C5977.98 1079.05 5955.51 1148.85 6015.09 1148.54C6074.68 1148.24 6231.08 1067.55 6295.69 1064.37C6360.3 1061.19 6349.23 1126.5 6402.74 1129.48C6456.26 1132.45 6581.1 1090.09 6616.77 1082.21V799.049L5183.99 799.049V1082.21Z" fill="url(#paint66_linear_344_74034)"/>
<path d="M5183.99 1011.42C5226.25 1018.98 5363.41 1060.63 5437.54 1056.78C5511.68 1052.93 5551.78 1000.84 5628.8 988.307C5705.82 975.777 5817.56 975.879 5899.65 981.598C5981.75 987.317 6033.64 1015.23 6121.38 1022.62C6209.11 1030.01 6343.51 1027.83 6426.08 1025.96C6508.64 1024.09 6584.99 1013.84 6616.77 1011.42V799.049L5183.99 799.049V1011.42Z" fill="url(#paint67_linear_344_74034)"/>
<path d="M5183.99 940.63C5239.89 946.365 5421.77 976.424 5519.42 975.041C5617.07 973.658 5690.45 948.932 5769.88 932.331C5849.31 915.73 5906.8 868.817 5996.01 875.437C6085.21 882.058 6201.66 961.189 6305.12 972.054C6408.58 982.919 6564.83 945.867 6616.77 940.63V799.05L5183.99 799.05V940.63Z" fill="url(#paint68_linear_344_74034)"/>
</g>
<g clip-path="url(#clip7_344_74034)">
<path d="M6240.76 1656.6C6288.73 1639.52 6434.18 1550.28 6528.61 1554.09C6623.03 1557.9 6736.59 1642.98 6807.28 1679.47C6877.96 1715.96 6842.86 1755.68 6952.71 1773.03C7062.56 1790.38 7361.49 1819.32 7466.41 1783.58C7571.33 1747.84 7502.62 1579.77 7582.21 1558.6C7661.8 1537.44 7883.67 1640.27 7943.96 1656.6V646.793L6240.76 646.793V1656.6Z" fill="url(#paint69_linear_344_74034)"/>
<path d="M6240.76 1488.3C6288.85 1509.98 6412.46 1640.61 6529.3 1618.36C6646.14 1596.1 6848.78 1377.22 6941.82 1354.77C7034.86 1332.32 7032.95 1474.93 7087.54 1483.66C7142.14 1492.39 7178.78 1396.24 7269.41 1407.14C7360.03 1418.05 7518.86 1535.56 7631.29 1549.09C7743.71 1562.62 7891.85 1498.43 7943.96 1488.3V646.792L6240.76 646.792V1488.3Z" fill="url(#paint70_linear_344_74034)"/>
<path d="M6240.76 1320C6281.55 1326.74 6396.9 1365.97 6485.52 1360.47C6574.14 1354.96 6673.87 1293.82 6772.48 1286.97C6871.08 1280.12 7014.48 1326.75 7077.16 1319.38C7139.84 1312.01 7101.88 1253.34 7148.58 1242.77C7195.27 1232.2 7288.4 1244.61 7357.34 1255.96C7426.27 1267.31 7464.42 1300.19 7562.19 1310.86C7659.96 1321.54 7880.33 1318.48 7943.96 1320V646.793L6240.76 646.793V1320Z" fill="url(#paint71_linear_344_74034)"/>
<path d="M6240.76 1151.7C6308.29 1169.68 6515.65 1249.65 6645.96 1259.62C6776.27 1269.59 6899.92 1215.28 7022.61 1211.5C7145.3 1207.72 7282.64 1226.52 7382.1 1236.94C7481.57 1247.37 7525.73 1288.27 7619.37 1274.06C7713.02 1259.85 7889.86 1172.09 7943.96 1151.7V646.793L6240.76 646.793V1151.7Z" fill="url(#paint72_linear_344_74034)"/>
<path d="M6240.76 983.396C6310.43 980.643 6530.18 987.016 6658.78 966.875C6787.38 946.735 6920.26 857.472 7012.33 862.555C7104.41 867.637 7102.29 964.979 7211.21 997.37C7320.13 1029.76 7543.75 1059.23 7665.88 1056.9C7788 1054.57 7897.61 995.647 7943.96 983.396V646.793L6240.76 646.793V983.396Z" fill="url(#paint73_linear_344_74034)"/>
<path d="M6240.76 815.094C6305.72 805.207 6551.47 776.993 6630.54 755.771C6709.6 734.55 6627.09 680.517 6715.13 687.764C6803.18 695.012 7030.81 756.859 7158.83 799.258C7286.84 841.657 7414.8 942.688 7483.21 942.159C7551.63 941.63 7492.53 817.261 7569.32 796.083C7646.11 774.906 7881.52 811.926 7943.96 815.094V646.793L6240.76 646.793V815.094Z" fill="url(#paint74_linear_344_74034)"/>
</g>
<g clip-path="url(#clip8_344_74034)">
<path d="M7280.17 1742.43C7355.35 1753.52 7606.39 1831.35 7731.25 1808.98C7856.11 1786.61 7901.82 1645.26 8029.34 1608.2C8156.86 1571.14 8338.94 1539.18 8496.37 1586.62C8653.8 1634.06 8841.94 1866.87 8973.94 1892.84C9105.93 1918.81 9235.95 1767.5 9288.35 1742.43V551.801H7280.17V1742.43Z" fill="url(#paint75_linear_344_74034)"/>
<path d="M7280.17 1623.37C7308.25 1642.57 7367.58 1740.75 7448.66 1738.59C7529.74 1736.43 7643.79 1650.99 7766.64 1610.42C7889.5 1569.85 8098.37 1469.85 8185.79 1495.15C8273.22 1520.46 8180.87 1732.99 8291.19 1762.24C8401.51 1791.49 8734.57 1709.87 8847.73 1670.67C8960.89 1631.48 8896.7 1534.95 8970.14 1527.06C9043.57 1519.18 9235.32 1607.32 9288.35 1623.37V551.803L7280.17 551.803V1623.37Z" fill="url(#paint76_linear_344_74034)"/>
<path d="M7280.17 1504.31C7356.35 1510.91 7588.33 1548.36 7737.23 1543.95C7886.14 1539.54 8074.47 1463.3 8173.6 1477.84C8272.72 1492.38 8234.51 1630.26 8331.99 1631.2C8429.47 1632.13 8599.06 1504.58 8758.46 1483.43C8917.85 1462.28 9200.04 1500.83 9288.35 1504.31V551.802L7280.17 551.802V1504.31Z" fill="url(#paint77_linear_344_74034)"/>
<path d="M7280.17 1385.24C7312.76 1399.33 7389.78 1448.32 7475.69 1469.74C7561.6 1491.15 7713.51 1548.87 7795.62 1513.74C7877.72 1478.61 7869.42 1276.66 7968.31 1258.97C8067.19 1241.28 8267.13 1401.81 8388.92 1407.59C8510.71 1413.37 8640.6 1311.63 8699.04 1293.64C8757.48 1275.64 8708.4 1264.87 8739.58 1299.61C8770.76 1334.36 8794.66 1487.84 8886.12 1502.12C8977.59 1516.39 9221.32 1404.72 9288.35 1385.24V551.803L7280.17 551.803V1385.24Z" fill="url(#paint78_linear_344_74034)"/>
<path d="M7280.17 1266.18C7333.86 1264.88 7448.13 1238.03 7602.31 1258.36C7756.49 1278.69 8071.37 1369.11 8205.25 1388.18C8339.13 1407.25 8298.51 1399.51 8405.59 1372.78C8512.68 1346.05 8700.64 1245.55 8847.77 1227.79C8994.89 1210.02 9214.92 1259.78 9288.36 1266.18V551.802L7280.17 551.802V1266.18Z" fill="url(#paint79_linear_344_74034)"/>
<path d="M7280.17 1147.12C7324.42 1139.36 7442.4 1086.22 7545.68 1100.58C7648.96 1114.94 7818.71 1241.21 7899.87 1233.26C7981.03 1225.32 7932.46 1040.56 8032.65 1052.9C8132.83 1065.24 8384.54 1317.63 8501 1307.31C8617.45 1296.99 8670.56 1022.15 8731.36 990.971C8792.16 959.788 8772.96 1094.19 8865.79 1120.21C8958.62 1146.24 9217.93 1142.63 9288.35 1147.12V551.802L7280.17 551.802V1147.12Z" fill="url(#paint80_linear_344_74034)"/>
<path d="M7280.17 1028.05C7328.58 1039.82 7474.04 1075.3 7570.61 1098.63C7667.17 1121.96 7767.99 1152.73 7859.57 1168.05C7951.16 1183.38 7988.1 1204.29 8120.12 1190.6C8252.14 1176.92 8508.85 1102.22 8651.67 1085.96C8794.49 1069.7 8870.92 1102.68 8977.04 1093.03C9083.15 1083.37 9236.47 1038.88 9288.35 1028.05V551.802L7280.17 551.802V1028.05Z" fill="url(#paint81_linear_344_74034)"/>
<path d="M7280.17 908.991C7334.34 894.905 7493.5 818.774 7605.21 824.476C7716.91 830.177 7810.87 952.925 7950.39 943.2C8089.92 933.475 8356.98 777.559 8442.37 766.125C8527.76 754.691 8404.49 858.03 8462.75 874.596C8521.01 891.162 8654.34 859.787 8791.94 865.519C8929.54 871.252 9205.62 901.746 9288.35 908.991V551.802L7280.17 551.802V908.991Z" fill="url(#paint82_linear_344_74034)"/>
<path d="M7280.17 789.928C7314.83 797.227 7417.5 815.167 7488.15 833.722C7558.79 852.277 7590.77 922.132 7704.01 901.258C7817.26 880.384 8021.47 750.033 8167.59 708.478C8313.71 666.922 8513.12 655.189 8580.76 651.924C8648.39 648.658 8499.62 652.615 8573.37 688.883C8647.13 725.151 8904.12 852.689 9023.29 869.53C9142.45 886.371 9244.18 803.195 9288.35 789.928V551.802L7280.17 551.802V789.928Z" fill="url(#paint83_linear_344_74034)"/>
</g>
</g>
<defs>
<linearGradient id="paint0_linear_344_74034" x1="-721.407" y1="1548.18" x2="580.818" y2="1760.79" gradientUnits="userSpaceOnUse">
<stop stop-color="#01B8F7"/>
</linearGradient>
<linearGradient id="paint1_linear_344_74034" x1="-721.407" y1="1513.87" x2="577.409" y2="1736.39" gradientUnits="userSpaceOnUse">
<stop stop-color="#129AFE"/>
<stop offset="0.0833333" stop-color="#12C1FE"/>
</linearGradient>
<linearGradient id="paint2_linear_344_74034" x1="-721.407" y1="1461.03" x2="571.097" y2="1700.68" gradientUnits="userSpaceOnUse">
<stop stop-color="#29A4FE"/>
<stop offset="0.166667" stop-color="#29C7FE"/>
</linearGradient>
<linearGradient id="paint3_linear_344_74034" x1="-721.407" y1="1400.57" x2="561.777" y2="1663.21" gradientUnits="userSpaceOnUse">
<stop stop-color="#41AEFE"/>
<stop offset="0.25" stop-color="#41CDFE"/>
</linearGradient>
<linearGradient id="paint4_linear_344_74034" x1="-721.407" y1="1326.61" x2="545.864" y2="1623.74" gradientUnits="userSpaceOnUse">
<stop stop-color="#59B8FE"/>
<stop offset="0.333333" stop-color="#59D3FE"/>
</linearGradient>
<linearGradient id="paint5_linear_344_74034" x1="-721.407" y1="1253.46" x2="522.232" y2="1594.09" gradientUnits="userSpaceOnUse">
<stop stop-color="#70C2FE"/>
<stop offset="0.416667" stop-color="#70DAFE"/>
</linearGradient>
<linearGradient id="paint6_linear_344_74034" x1="-721.407" y1="1213.59" x2="504.104" y2="1583.13" gradientUnits="userSpaceOnUse">
<stop stop-color="#88CCFF"/>
<stop offset="0.5" stop-color="#88E0FF"/>
</linearGradient>
<linearGradient id="paint7_linear_344_74034" x1="-721.407" y1="1152.63" x2="464.733" y2="1575.55" gradientUnits="userSpaceOnUse">
<stop stop-color="#A0D6FF"/>
<stop offset="0.583333" stop-color="#A0E6FF"/>
</linearGradient>
<linearGradient id="paint8_linear_344_74034" x1="-721.407" y1="1085.96" x2="394.193" y2="1582.88" gradientUnits="userSpaceOnUse">
<stop stop-color="#B7E1FF"/>
<stop offset="0.666667" stop-color="#B7EDFF"/>
</linearGradient>
<linearGradient id="paint9_linear_344_74034" x1="-721.407" y1="1033.87" x2="302.282" y2="1600.15" gradientUnits="userSpaceOnUse">
<stop stop-color="#CFEBFF"/>
<stop offset="0.75" stop-color="#CFF3FF"/>
</linearGradient>
<linearGradient id="paint10_linear_344_74034" x1="-721.407" y1="991.652" x2="185.965" y2="1615.97" gradientUnits="userSpaceOnUse">
<stop stop-color="#E7F5FF"/>
<stop offset="0.833333" stop-color="#E7F9FF"/>
</linearGradient>
<linearGradient id="paint11_linear_344_74034" x1="-721.407" y1="928.223" x2="-107.853" y2="1594.43" gradientUnits="userSpaceOnUse">
<stop stop-color="#FEFFFF"/>
<stop offset="0.916667" stop-color="#FEFFFF"/>
</linearGradient>
<linearGradient id="paint12_linear_344_74034" x1="1662.72" y1="1548.27" x2="2964.94" y2="1760.89" gradientUnits="userSpaceOnUse">
<stop stop-color="#0301F7"/>
</linearGradient>
<linearGradient id="paint13_linear_344_74034" x1="1662.72" y1="1490.31" x2="2958.88" y2="1720.19" gradientUnits="userSpaceOnUse">
<stop stop-color="#451DFE"/>
<stop offset="0.0833333" stop-color="#201DFE"/>
</linearGradient>
<linearGradient id="paint14_linear_344_74034" x1="1662.72" y1="1452.21" x2="2954" y2="1695" gradientUnits="userSpaceOnUse">
<stop stop-color="#6241FE"/>
<stop offset="0.166667" stop-color="#4241FE"/>
</linearGradient>
<linearGradient id="paint15_linear_344_74034" x1="1662.72" y1="1351.33" x2="2935.98" y2="1636.07" gradientUnits="userSpaceOnUse">
<stop stop-color="#7F64FE"/>
<stop offset="0.25" stop-color="#6564FE"/>
</linearGradient>
<linearGradient id="paint16_linear_344_74034" x1="1662.72" y1="1301.22" x2="2922.87" y2="1612.28" gradientUnits="userSpaceOnUse">
<stop stop-color="#9C88FF"/>
<stop offset="0.333333" stop-color="#8888FF"/>
</linearGradient>
<linearGradient id="paint17_linear_344_74034" x1="1662.72" y1="1281.46" x2="2916.59" y2="1604.19" gradientUnits="userSpaceOnUse">
<stop stop-color="#BAABFF"/>
<stop offset="0.416667" stop-color="#ACABFF"/>
</linearGradient>
<linearGradient id="paint18_linear_344_74034" x1="1662.72" y1="1207.78" x2="2885.11" y2="1581.97" gradientUnits="userSpaceOnUse">
<stop stop-color="#D7CEFF"/>
<stop offset="0.5" stop-color="#CFCEFF"/>
</linearGradient>
<linearGradient id="paint19_linear_344_74034" x1="1662.72" y1="1162.18" x2="2856.17" y2="1576" gradientUnits="userSpaceOnUse">
<stop stop-color="#F4F2FF"/>
<stop offset="0.583333" stop-color="#F2F2FF"/>
</linearGradient>
<linearGradient id="paint20_linear_344_74034" x1="1662.72" y1="1050.24" x2="2719.99" y2="1594" gradientUnits="userSpaceOnUse">
<stop stop-color="white"/>
<stop offset="0.666667" stop-color="white"/>
</linearGradient>
<linearGradient id="paint21_linear_344_74034" x1="1662.72" y1="997.592" x2="2589.22" y2="1614.25" gradientUnits="userSpaceOnUse">
<stop stop-color="white"/>
<stop offset="0.75" stop-color="white"/>
</linearGradient>
<linearGradient id="paint22_linear_344_74034" x1="1662.72" y1="966.73" x2="2474.55" y2="1619.64" gradientUnits="userSpaceOnUse">
<stop stop-color="white"/>
<stop offset="0.833333" stop-color="white"/>
</linearGradient>
<linearGradient id="paint23_linear_344_74034" x1="1662.72" y1="925.098" x2="2256.56" y2="1589.39" gradientUnits="userSpaceOnUse">
<stop stop-color="white"/>
<stop offset="0.916667" stop-color="white"/>
</linearGradient>
<linearGradient id="paint24_linear_344_74034" x1="470.768" y1="1548.27" x2="1772.99" y2="1760.89" gradientUnits="userSpaceOnUse">
<stop stop-color="#0301F7"/>
</linearGradient>
<linearGradient id="paint25_linear_344_74034" x1="470.768" y1="1490.31" x2="1766.93" y2="1720.19" gradientUnits="userSpaceOnUse">
<stop stop-color="#451DFE"/>
<stop offset="0.0833333" stop-color="#201DFE"/>
</linearGradient>
<linearGradient id="paint26_linear_344_74034" x1="470.768" y1="1452.21" x2="1762.06" y2="1695" gradientUnits="userSpaceOnUse">
<stop stop-color="#6241FE"/>
<stop offset="0.166667" stop-color="#4241FE"/>
</linearGradient>
<linearGradient id="paint27_linear_344_74034" x1="470.768" y1="1351.33" x2="1744.03" y2="1636.07" gradientUnits="userSpaceOnUse">
<stop stop-color="#7F64FE"/>
<stop offset="0.25" stop-color="#6564FE"/>
</linearGradient>
<linearGradient id="paint28_linear_344_74034" x1="470.768" y1="1301.22" x2="1730.92" y2="1612.28" gradientUnits="userSpaceOnUse">
<stop stop-color="#9C88FF"/>
<stop offset="0.333333" stop-color="#8888FF"/>
</linearGradient>
<linearGradient id="paint29_linear_344_74034" x1="470.768" y1="1281.46" x2="1724.64" y2="1604.19" gradientUnits="userSpaceOnUse">
<stop stop-color="#BAABFF"/>
<stop offset="0.416667" stop-color="#ACABFF"/>
</linearGradient>
<linearGradient id="paint30_linear_344_74034" x1="470.768" y1="1207.78" x2="1693.16" y2="1581.97" gradientUnits="userSpaceOnUse">
<stop stop-color="#D7CEFF"/>
<stop offset="0.5" stop-color="#CFCEFF"/>
</linearGradient>
<linearGradient id="paint31_linear_344_74034" x1="470.768" y1="1162.18" x2="1664.22" y2="1576" gradientUnits="userSpaceOnUse">
<stop stop-color="#F4F2FF"/>
<stop offset="0.583333" stop-color="#F2F2FF"/>
</linearGradient>
<linearGradient id="paint32_linear_344_74034" x1="470.768" y1="1050.24" x2="1528.04" y2="1594" gradientUnits="userSpaceOnUse">
<stop stop-color="white"/>
<stop offset="0.666667" stop-color="white"/>
</linearGradient>
<linearGradient id="paint33_linear_344_74034" x1="470.768" y1="997.592" x2="1397.27" y2="1614.25" gradientUnits="userSpaceOnUse">
<stop stop-color="white"/>
<stop offset="0.75" stop-color="white"/>
</linearGradient>
<linearGradient id="paint34_linear_344_74034" x1="470.768" y1="966.73" x2="1282.6" y2="1619.64" gradientUnits="userSpaceOnUse">
<stop stop-color="white"/>
<stop offset="0.833333" stop-color="white"/>
</linearGradient>
<linearGradient id="paint35_linear_344_74034" x1="470.768" y1="925.098" x2="1064.61" y2="1589.39" gradientUnits="userSpaceOnUse">
<stop stop-color="white"/>
<stop offset="0.916667" stop-color="white"/>
</linearGradient>
<linearGradient id="paint36_linear_344_74034" x1="2831.69" y1="1573.35" x2="4178.67" y2="1793.26" gradientUnits="userSpaceOnUse">
<stop stop-color="#A501F7"/>
</linearGradient>
<linearGradient id="paint37_linear_344_74034" x1="2831.69" y1="1545.68" x2="4175.96" y2="1773.51" gradientUnits="userSpaceOnUse">
<stop stop-color="#D715FE"/>
<stop offset="0.0833333" stop-color="#B015FE"/>
</linearGradient>
<linearGradient id="paint38_linear_344_74034" x1="2831.69" y1="1454.69" x2="4164.55" y2="1712.9" gradientUnits="userSpaceOnUse">
<stop stop-color="#DC31FE"/>
<stop offset="0.166667" stop-color="#BA31FE"/>
</linearGradient>
<linearGradient id="paint39_linear_344_74034" x1="2831.69" y1="1398.9" x2="4154.9" y2="1679.88" gradientUnits="userSpaceOnUse">
<stop stop-color="#E14CFE"/>
<stop offset="0.25" stop-color="#C34CFE"/>
</linearGradient>
<linearGradient id="paint40_linear_344_74034" x1="2831.69" y1="1352.41" x2="4144.61" y2="1655.48" gradientUnits="userSpaceOnUse">
<stop stop-color="#E567FE"/>
<stop offset="0.333333" stop-color="#CC67FE"/>
</linearGradient>
<linearGradient id="paint41_linear_344_74034" x1="2831.69" y1="1290.67" x2="4126.35" y2="1628.62" gradientUnits="userSpaceOnUse">
<stop stop-color="#EA83FE"/>
<stop offset="0.416667" stop-color="#D583FE"/>
</linearGradient>
<linearGradient id="paint42_linear_344_74034" x1="2831.69" y1="1208.79" x2="4089.16" y2="1605.91" gradientUnits="userSpaceOnUse">
<stop stop-color="#EF9EFF"/>
<stop offset="0.5" stop-color="#DF9EFF"/>
</linearGradient>
<linearGradient id="paint43_linear_344_74034" x1="2831.69" y1="1183.41" x2="4072.95" y2="1602.68" gradientUnits="userSpaceOnUse">
<stop stop-color="#F3B9FF"/>
<stop offset="0.583333" stop-color="#E7B9FF"/>
</linearGradient>
<linearGradient id="paint44_linear_344_74034" x1="2831.69" y1="1062.07" x2="3932.58" y2="1619.25" gradientUnits="userSpaceOnUse">
<stop stop-color="#F8D5FF"/>
<stop offset="0.666667" stop-color="#F1D5FF"/>
</linearGradient>
<linearGradient id="paint45_linear_344_74034" x1="2831.69" y1="1049.25" x2="3907.5" y2="1624.01" gradientUnits="userSpaceOnUse">
<stop stop-color="#FCF0FF"/>
<stop offset="0.75" stop-color="#F9F0FF"/>
</linearGradient>
<linearGradient id="paint46_linear_344_74034" x1="2831.69" y1="960.299" x2="3619.09" y2="1645.05" gradientUnits="userSpaceOnUse">
<stop stop-color="white"/>
<stop offset="0.833333" stop-color="white"/>
</linearGradient>
<linearGradient id="paint47_linear_344_74034" x1="2831.69" y1="897.934" x2="3236.92" y2="1527.35" gradientUnits="userSpaceOnUse">
<stop stop-color="white"/>
<stop offset="0.916667" stop-color="white"/>
</linearGradient>
<linearGradient id="paint48_linear_344_74034" x1="4018.53" y1="1561.58" x2="5375.74" y2="1783.33" gradientUnits="userSpaceOnUse">
<stop stop-color="#B6314A"/>
</linearGradient>
<linearGradient id="paint49_linear_344_74034" x1="4018.53" y1="1548.85" x2="5374.53" y2="1774.17" gradientUnits="userSpaceOnUse">
<stop stop-color="#CB3D40"/>
<stop offset="0.1" stop-color="#CB3D58"/>
</linearGradient>
<linearGradient id="paint50_linear_344_74034" x1="4018.53" y1="1457.18" x2="5363.71" y2="1711.96" gradientUnits="userSpaceOnUse">
<stop stop-color="#D2575A"/>
<stop offset="0.2" stop-color="#D2576E"/>
</linearGradient>
<linearGradient id="paint51_linear_344_74034" x1="4018.53" y1="1368.34" x2="5348.15" y2="1659.65" gradientUnits="userSpaceOnUse">
<stop stop-color="#D97274"/>
<stop offset="0.3" stop-color="#D97285"/>
</linearGradient>
<linearGradient id="paint52_linear_344_74034" x1="4018.53" y1="1320.14" x2="5336.4" y2="1635.72" gradientUnits="userSpaceOnUse">
<stop stop-color="#E08C8E"/>
<stop offset="0.4" stop-color="#E08C9C"/>
</linearGradient>
<linearGradient id="paint53_linear_344_74034" x1="4018.53" y1="1245.45" x2="5310.83" y2="1606.98" gradientUnits="userSpaceOnUse">
<stop stop-color="#E7A6A7"/>
<stop offset="0.5" stop-color="#E7A6B2"/>
</linearGradient>
<linearGradient id="paint54_linear_344_74034" x1="4018.53" y1="1187.1" x2="5280.99" y2="1593.74" gradientUnits="userSpaceOnUse">
<stop stop-color="#EEC0C1"/>
<stop offset="0.6" stop-color="#EEC0C9"/>
</linearGradient>
<linearGradient id="paint55_linear_344_74034" x1="4018.53" y1="1112.01" x2="5219.75" y2="1592.53" gradientUnits="userSpaceOnUse">
<stop stop-color="#F5DADB"/>
<stop offset="0.7" stop-color="#F5DADF"/>
</linearGradient>
<linearGradient id="paint56_linear_344_74034" x1="4018.53" y1="1035.91" x2="5106.43" y2="1612.45" gradientUnits="userSpaceOnUse">
<stop stop-color="#FCF4F4"/>
<stop offset="0.8" stop-color="#FCF4F5"/>
</linearGradient>
<linearGradient id="paint57_linear_344_74034" x1="4018.53" y1="972.011" x2="4928.7" y2="1635.23" gradientUnits="userSpaceOnUse">
<stop stop-color="white"/>
<stop offset="0.9" stop-color="white"/>
</linearGradient>
<linearGradient id="paint58_linear_344_74034" x1="5183.99" y1="1563.58" x2="6591.07" y2="1800.91" gradientUnits="userSpaceOnUse">
<stop stop-color="#F73701"/>
</linearGradient>
<linearGradient id="paint59_linear_344_74034" x1="5183.99" y1="1541.31" x2="6588.7" y2="1785.34" gradientUnits="userSpaceOnUse">
<stop stop-color="#FE6B0F"/>
<stop offset="0.0833333" stop-color="#FE430F"/>
</linearGradient>
<linearGradient id="paint60_linear_344_74034" x1="5183.99" y1="1480.02" x2="6581" y2="1744.56" gradientUnits="userSpaceOnUse">
<stop stop-color="#FE7823"/>
<stop offset="0.166667" stop-color="#FE5323"/>
</linearGradient>
<linearGradient id="paint61_linear_344_74034" x1="5183.99" y1="1427.71" x2="6572.67" y2="1712.56" gradientUnits="userSpaceOnUse">
<stop stop-color="#FE8538"/>
<stop offset="0.25" stop-color="#FE6438"/>
</linearGradient>
<linearGradient id="paint62_linear_344_74034" x1="5183.99" y1="1354.99" x2="6557.22" y2="1673.51" gradientUnits="userSpaceOnUse">
<stop stop-color="#FE914D"/>
<stop offset="0.333333" stop-color="#FE734D"/>
</linearGradient>
<linearGradient id="paint63_linear_344_74034" x1="5183.99" y1="1304.61" x2="6542.7" y2="1651.17" gradientUnits="userSpaceOnUse">
<stop stop-color="#FE9E62"/>
<stop offset="0.416667" stop-color="#FE8462"/>
</linearGradient>
<linearGradient id="paint64_linear_344_74034" x1="5183.99" y1="1189.95" x2="6489.08" y2="1620.47" gradientUnits="userSpaceOnUse">
<stop stop-color="#FEAB76"/>
<stop offset="0.5" stop-color="#FE9476"/>
</linearGradient>
<linearGradient id="paint65_linear_344_74034" x1="5183.99" y1="1176.6" x2="6479.92" y2="1619.22" gradientUnits="userSpaceOnUse">
<stop stop-color="#FFB88B"/>
<stop offset="0.583333" stop-color="#FFA58B"/>
</linearGradient>
<linearGradient id="paint66_linear_344_74034" x1="5183.99" y1="1113.6" x2="6422.88" y2="1621.49" gradientUnits="userSpaceOnUse">
<stop stop-color="#FFC4A0"/>
<stop offset="0.666667" stop-color="#FFB4A0"/>
</linearGradient>
<linearGradient id="paint67_linear_344_74034" x1="5183.99" y1="1031.23" x2="6289.96" y2="1645.47" gradientUnits="userSpaceOnUse">
<stop stop-color="#FFD1B4"/>
<stop offset="0.75" stop-color="#FFC4B4"/>
</linearGradient>
<linearGradient id="paint68_linear_344_74034" x1="5183.99" y1="957.484" x2="6054.46" y2="1665.97" gradientUnits="userSpaceOnUse">
<stop stop-color="#FFDEC9"/>
<stop offset="0.833333" stop-color="#FFD5C9"/>
</linearGradient>
<linearGradient id="paint69_linear_344_74034" x1="6240.76" y1="1685.23" x2="7924.3" y2="1933.74" gradientUnits="userSpaceOnUse">
<stop stop-color="#DEA346"/>
</linearGradient>
<linearGradient id="paint70_linear_344_74034" x1="6240.76" y1="1523.49" x2="7909.96" y2="1815.34" gradientUnits="userSpaceOnUse">
<stop stop-color="#E2C35A"/>
<stop offset="0.166667" stop-color="#E2AC5A"/>
</linearGradient>
<linearGradient id="paint71_linear_344_74034" x1="6240.76" y1="1289.58" x2="7868.42" y2="1677.73" gradientUnits="userSpaceOnUse">
<stop stop-color="#E5CA6E"/>
<stop offset="0.333333" stop-color="#E5B66E"/>
</linearGradient>
<linearGradient id="paint72_linear_344_74034" x1="6240.76" y1="1214" x2="7843.91" y2="1647.25" gradientUnits="userSpaceOnUse">
<stop stop-color="#E9D282"/>
<stop offset="0.5" stop-color="#E9C182"/>
</linearGradient>
<linearGradient id="paint73_linear_344_74034" x1="6240.76" y1="1016.01" x2="7708.07" y2="1625.2" gradientUnits="userSpaceOnUse">
<stop stop-color="#ECD996"/>
<stop offset="0.666667" stop-color="#ECCB96"/>
</linearGradient>
<linearGradient id="paint74_linear_344_74034" x1="6240.76" y1="912.624" x2="7531.73" y2="1657.05" gradientUnits="userSpaceOnUse">
<stop stop-color="#F0E0A9"/>
<stop offset="0.833333" stop-color="#F0D4A9"/>
</linearGradient>
<linearGradient id="paint75_linear_344_74034" x1="7280.17" y1="1761.42" x2="9264.14" y2="2057.86" gradientUnits="userSpaceOnUse">
<stop stop-color="#67A33E"/>
</linearGradient>
<linearGradient id="paint76_linear_344_74034" x1="7280.17" y1="1646.78" x2="9254.64" y2="1972.68" gradientUnits="userSpaceOnUse">
<stop stop-color="#60B545"/>
<stop offset="0.1" stop-color="#73B545"/>
</linearGradient>
<linearGradient id="paint77_linear_344_74034" x1="7280.17" y1="1523.26" x2="9240.58" y2="1887.99" gradientUnits="userSpaceOnUse">
<stop stop-color="#6EBE55"/>
<stop offset="0.2" stop-color="#7FBE55"/>
</linearGradient>
<linearGradient id="paint78_linear_344_74034" x1="7280.17" y1="1427.52" x2="9225.57" y2="1829.03" gradientUnits="userSpaceOnUse">
<stop stop-color="#7EC568"/>
<stop offset="0.3" stop-color="#8DC568"/>
</linearGradient>
<linearGradient id="paint79_linear_344_74034" x1="7280.17" y1="1314.04" x2="9200.47" y2="1769.37" gradientUnits="userSpaceOnUse">
<stop stop-color="#8DCC7A"/>
<stop offset="0.4" stop-color="#9BCC7A"/>
</linearGradient>
<linearGradient id="paint80_linear_344_74034" x1="7280.17" y1="1232.04" x2="9174.69" y2="1735.41" gradientUnits="userSpaceOnUse">
<stop stop-color="#9DD38C"/>
<stop offset="0.5" stop-color="#A9D38C"/>
</linearGradient>
<linearGradient id="paint81_linear_344_74034" x1="7280.17" y1="1130.72" x2="9128.3" y2="1707.7" gradientUnits="userSpaceOnUse">
<stop stop-color="#ADDA9F"/>
<stop offset="0.6" stop-color="#B7DA9F"/>
</linearGradient>
<linearGradient id="paint82_linear_344_74034" x1="7280.17" y1="904.554" x2="8886.7" y2="1727.68" gradientUnits="userSpaceOnUse">
<stop stop-color="#BCE1B1"/>
<stop offset="0.7" stop-color="#C4E1B1"/>
</linearGradient>
<linearGradient id="paint83_linear_344_74034" x1="7280.17" y1="869.781" x2="8813.17" y2="1741.13" gradientUnits="userSpaceOnUse">
<stop stop-color="#CCE8C3"/>
<stop offset="0.8" stop-color="#D2E8C3"/>
</linearGradient>
<clipPath id="clip0_344_74034">
<rect width="8224" height="2447" fill="white"/>
</clipPath>
<clipPath id="clip1_344_74034">
<rect width="1169.11" height="657.626" fill="white" transform="translate(-644 895)"/>
</clipPath>
<clipPath id="clip2_344_74034">
<rect width="1169.11" height="657.626" fill="white" transform="translate(1739.9 895)"/>
</clipPath>
<clipPath id="clip3_344_74034">
<rect width="1169.11" height="657.626" fill="white" transform="translate(547.948 895)"/>
</clipPath>
<clipPath id="clip4_344_74034">
<rect width="1169.11" height="657.626" fill="white" transform="translate(2931.84 895)"/>
</clipPath>
<clipPath id="clip5_344_74034">
<rect width="1169.11" height="657.626" fill="white" transform="translate(4123.79 895)"/>
</clipPath>
<clipPath id="clip6_344_74034">
<rect width="1169.11" height="657.626" fill="white" transform="translate(5315.74 895)"/>
</clipPath>
<clipPath id="clip7_344_74034">
<rect width="1169.11" height="657.626" fill="white" transform="translate(6507.69 895)"/>
</clipPath>
<clipPath id="clip8_344_74034">
<rect width="1169.11" height="657.626" fill="white" transform="translate(7699.64 895)"/>
</clipPath>
</defs>
</svg>
